<svg xmlns="http://www.w3.org/2000/svg" viewBox="0 0 580.83 142.55"><defs><style>.a{fill:#007dc3;}.b{fill:#fdbb30;}</style></defs><title>wm-logo-blue</title><path class="a" d="M343.93,77.21c0-14.08-6-26.46-26.34-26.46-10.43,0-18.71,2.93-23.22,5.54l3.3,11.32a34,34,0,0,1,16.95-4.77c10.3,0,12,5.84,12,9.59v0.89c-22.48,0-36.67,7.74-36.67,23.6,0,9.68,7.23,18.75,19.81,18.75,7.73,0,14.2-3.08,18.07-8h0.39s2.56,10.74,16.71,6.63a90,90,0,0,1-1-15V77.21ZM327.15,92.08a11,11,0,0,1-11.75,11.3c-4.65,0-8.34-2.63-8.34-8.22,0-8.53,9.39-10.9,20.09-10.84v7.75Z" transform="translate(0 -1.38)"/><path class="a" d="M0,31.58s14.68,60.16,17,69.92c2.73,11.4,7.66,15.6,21.87,12.76L48.06,77c2.33-9.27,3.88-15.87,5.38-25.29H53.7c1,9.52,2.55,16.06,4.45,25.33,0,0,3.73,16.93,5.64,25.83S71,117.32,85,114.27L106.8,31.58H89.16L81.7,67.33c-2,10.4-3.82,18.54-5.22,28.06H76.23C75,86,73.33,78.16,71.29,68L63.53,31.58H45.15L36.85,67.1c-2.35,10.79-4.56,19.51-6,28.7H30.65c-1.44-8.66-3.35-19.61-5.41-30.06,0,0-4.93-25.4-6.66-34.16H0Z" transform="translate(0 -1.38)"/><path class="a" d="M155.9,77.21c0-14.08-6-26.46-26.33-26.46-10.43,0-18.72,2.93-23.23,5.54l3.3,11.32a34,34,0,0,1,16.94-4.77c10.31,0,12,5.84,12,9.59v0.89c-22.48,0-36.67,7.74-36.67,23.6,0,9.68,7.23,18.75,19.79,18.75,7.74,0,14.2-3.08,18.08-8h0.38s2.57,10.74,16.71,6.63a91,91,0,0,1-1-15V77.21ZM139.12,92.08a11.43,11.43,0,0,1-.42,3.36,11.76,11.76,0,0,1-11.32,7.95c-4.65,0-8.34-2.63-8.34-8.22,0-8.53,9.39-10.9,20.09-10.84v7.75Z" transform="translate(0 -1.38)"/><polygon class="a" points="181.85 95.33 181.85 30.2 165.05 30.2 165.05 112.89 181.85 112.89 181.85 95.33"/><path class="a" d="M395.4,31.58v61c0,8.41,1.59,14.29,5,17.89,3,3.15,7.83,5.19,13.67,5.19a39.61,39.61,0,0,0,12.15-1.8L426,100.75a25.72,25.72,0,0,1-6.38.76c-5.72,0-7.64-3.66-7.64-11.21V67h14.62V51.14H412V31.58H395.4Z" transform="translate(0 -1.38)"/><path class="a" d="M352.06,52.15v62.11h17.32V82.46a23.73,23.73,0,0,1,.38-4.58C371,71.22,376.13,67,383.45,67a31.54,31.54,0,0,1,5,.44V51.14a16.68,16.68,0,0,0-3.82-.38c-6.46,0-13.82,4.17-16.9,13.11h-0.47V52.15h-15.2Z" transform="translate(0 -1.38)"/><path class="a" d="M191.56,52.15v62.11h16.88V77.84a14.55,14.55,0,0,1,.79-5.08c1.4-3.67,4.81-8,10.26-8,6.81,0,10,5.76,10,14.07v35.4h16.86V77.4a17.14,17.14,0,0,1,.71-5,10.64,10.64,0,0,1,10.13-7.57c6.91,0,10.22,5.66,10.22,15.44v34h16.87V77.69c0-19.3-9.8-26.93-20.85-26.93a22.51,22.51,0,0,0-12.26,3.37,26.19,26.19,0,0,0-7.87,7.74H243c-2.66-6.69-8.94-11.1-17.11-11.1-10.51,0-15.23,5.32-18.09,9.84h-0.25V52.15h-16Z" transform="translate(0 -1.38)"/><path class="b" d="M517.31,49.37c3.34,0,6.09-1.74,6.46-4l3.3-37.3c0-3.69-4.32-6.71-9.75-6.71s-9.73,3-9.73,6.71l3.29,37.3c0.36,2.24,3.12,4,6.44,4h0Z" transform="translate(0 -1.38)"/><path class="b" d="M497.16,61c1.67-2.89,1.54-6.14-.21-7.58l-30.66-21.5c-3.18-1.84-8,.38-10.68,5.08s-2.24,9.95.95,11.79l33.94,15.8c2.12,0.79,5-.72,6.68-3.61v0Z" transform="translate(0 -1.38)"/><path class="b" d="M537.49,61c1.67,2.89,4.55,4.4,6.67,3.61l33.94-15.8c3.2-1.84,3.66-7.09,1-11.79s-7.51-6.92-10.69-5.08l-30.66,21.5c-1.75,1.44-1.88,4.69-.21,7.58v0Z" transform="translate(0 -1.38)"/><path class="b" d="M517.31,96c3.34,0,6.09,1.73,6.46,4l3.3,37.29c0,3.7-4.32,6.72-9.75,6.72s-9.73-3-9.73-6.72l3.29-37.29c0.36-2.24,3.12-4,6.44-4h0Z" transform="translate(0 -1.38)"/><path class="b" d="M537.49,84.31c1.67-2.89,4.55-4.39,6.67-3.59L578.1,96.5c3.2,1.85,3.66,7.1,1,11.8s-7.51,6.92-10.69,5.08L537.71,91.89c-1.75-1.46-1.88-4.7-.21-7.59h0Z" transform="translate(0 -1.38)"/><path class="b" d="M497.16,84.3c1.67,2.89,1.54,6.13-.21,7.59l-30.66,21.48c-3.18,1.84-8-.39-10.68-5.08s-2.24-10,.95-11.8l33.94-15.78c2.12-.8,5,0.7,6.68,3.59h0Z" transform="translate(0 -1.38)"/></svg>